<?xml version="1.0" encoding="utf-8"?>
<!-- Generator: Adobe Illustrator 19.1.0, SVG Export Plug-In . SVG Version: 6.00 Build 0)  -->
<svg version="1.1" id="Layer_1" xmlns="http://www.w3.org/2000/svg" xmlns:xlink="http://www.w3.org/1999/xlink" x="0px" y="0px"
	 viewBox="-298 744.1 313 49.2" enable-background="new -298 744.1 313 49.2" xml:space="preserve">
<path fill="#FFFFFD" d="M15,746.4c0,1-0.8,1.9-1.9,1.9s-1.9-0.8-1.9-1.9c0-1,0.8-1.9,1.9-1.9S15,745.3,15,746.4z M11.6,746.4
	c0,0.9,0.7,1.6,1.6,1.6s1.6-0.7,1.6-1.6c0-0.9-0.7-1.6-1.6-1.6C12.2,744.8,11.6,745.5,11.6,746.4z M12.7,747.4h-0.3v-2.1h0.8
	c0.5,0,0.7,0.2,0.7,0.6c0,0.4-0.3,0.6-0.5,0.6l0.6,1h-0.3l-0.6-1h-0.4V747.4L12.7,747.4z M13.1,746.3c0.3,0,0.6,0,0.6-0.4
	c0-0.3-0.3-0.4-0.5-0.4h-0.5v0.7L13.1,746.3L13.1,746.3z M-215.6,764.2c0.9,0,1.6-0.1,2.2-0.3c0.6-0.2,0.8-0.6,0.8-1.1
	c0-0.3-0.1-0.6-0.3-0.8c-0.2-0.2-0.5-0.4-0.9-0.6s-0.9-0.3-1.5-0.5s-1.2-0.3-2-0.6c-0.9-0.3-1.9-0.6-2.9-1c-1-0.4-1.9-0.9-2.7-1.5
	c-0.8-0.6-1.5-1.4-2-2.2c-0.5-0.9-0.8-2-0.8-3.3c0-2.5,0.9-4.4,2.6-5.9c1.7-1.4,4.3-2.2,7.8-2.2c2.3,0,4.2,0.2,5.9,0.6
	c1.7,0.4,3.1,1,4.3,1.6l-1.2,6.5c-1.4-0.7-2.9-1.3-4.5-1.7s-3-0.6-4.4-0.6c-0.8,0-1.4,0.1-1.8,0.3c-0.4,0.2-0.6,0.5-0.6,1
	c0,0.3,0.1,0.6,0.4,0.8c0.2,0.3,0.6,0.5,1,0.7c0.5,0.2,1,0.3,1.6,0.5c0.6,0.2,1.2,0.3,1.8,0.5c1,0.3,2,0.6,3,1
	c1,0.4,1.9,0.9,2.6,1.5c0.8,0.6,1.4,1.3,1.9,2.2s0.7,1.9,0.7,3.1c0,1.3-0.2,2.4-0.7,3.5c-0.5,1-1.2,1.9-2.1,2.7
	c-0.9,0.7-2.1,1.3-3.5,1.7c-1.4,0.4-3,0.6-4.8,0.6c-2.1,0-4.1-0.2-5.9-0.7c-1.8-0.4-3.3-1-4.5-1.6l1.2-6.5c1.4,0.7,2.9,1.2,4.5,1.7
	C-218.8,764-217.2,764.2-215.6,764.2z M-187.5,751.3V770h-7.9v-18.7h-7.6v-6.5h23.2v6.5H-187.5z M-154.6,770h-7.9l-1.6-4.7h-8.5
	l-1.5,4.7h-7.8l8.7-25.2h10.1L-154.6,770z M-168.2,750.5l-2.8,8.8h5.5L-168.2,750.5z M-141.1,751.3V770h-7.9v-18.7h-7.6v-6.5h23.2
	v6.5H-141.1z M-130.1,770v-25.2h19.6v6.2h-11.9v3.2h9.4v6.2h-9.4v3.3h11.9v6.2L-130.1,770L-130.1,770z M-74.1,770H-82l-1.6-4.7H-92
	l-1.5,4.7h-7.8l8.7-25.2h10.1L-74.1,770z M-87.7,750.5l-2.8,8.8h5.5L-87.7,750.5z M-49.9,764.5c-0.6,1.4-1.4,2.6-2.4,3.5
	s-2.3,1.6-3.7,2c-1.4,0.4-3,0.6-4.7,0.6s-3.2-0.2-4.7-0.6c-1.4-0.4-2.7-1-3.7-1.8s-1.9-1.9-2.5-3.3c-0.6-1.3-0.9-2.9-0.9-4.9v-15.2
	h7.9v14.3c0,1.7,0.3,2.9,0.9,3.8c0.6,0.8,1.6,1.2,3,1.2c1.3,0,2.3-0.3,2.8-1c0.6-0.7,0.9-1.9,0.9-3.7v-14.6h7.9v14.6
	C-49.1,761.4-49.3,763.1-49.9,764.5z M-30.4,751.3V770h-7.9v-18.7H-46v-6.5h23.2v6.5H-30.4z M6.1,757.3c0,2-0.3,3.9-1,5.5
	c-0.7,1.7-1.7,3.1-2.9,4.2c-1.2,1.1-2.7,2-4.3,2.6s-3.4,0.9-5.3,0.9s-3.6-0.3-5.3-0.8s-3.1-1.4-4.3-2.5c-1.2-1.1-2.2-2.5-2.8-4.1
	c-0.7-1.6-1-3.6-1-5.8c0-2.1,0.3-3.9,1-5.5s1.7-3,2.9-4.2s2.7-2,4.3-2.6c1.6-0.6,3.4-0.9,5.3-0.9s3.6,0.3,5.3,0.8
	c1.6,0.5,3.1,1.4,4.3,2.4c1.2,1.1,2.2,2.5,2.8,4.1C5.8,753.2,6.1,755.1,6.1,757.3z M-1.8,757.5c0-2.1-0.5-3.8-1.4-5.1
	c-0.9-1.3-2.3-2-4.2-2s-3.2,0.6-4.1,1.9c-0.9,1.3-1.3,2.9-1.3,5c0,1.1,0.1,2,0.4,2.9c0.2,0.9,0.6,1.6,1,2.2c0.4,0.6,1,1.1,1.7,1.5
	c0.7,0.4,1.5,0.5,2.4,0.5c1.8,0,3.2-0.6,4.1-1.9S-1.8,759.5-1.8,757.5z M-225.5,788.5v-12.2h1.2v12.2H-225.5z M-215.7,788.5v-5.8
	c0-0.8-0.2-1.4-0.5-1.7c-0.3-0.4-0.8-0.5-1.5-0.5c-0.5,0-1,0.1-1.4,0.4c-0.5,0.2-0.9,0.5-1.3,0.9v6.8h-1.2v-9l1.2-0.3v1.5
	c0.5-0.5,1-0.8,1.5-1.1c0.5-0.3,1.1-0.4,1.5-0.4c0.9,0,1.6,0.3,2.1,0.8s0.8,1.3,0.8,2.3v6.1H-215.7L-215.7,788.5z M-206.8,786.1
	c0,0.4-0.1,0.8-0.2,1.1c-0.2,0.3-0.4,0.6-0.7,0.8c-0.3,0.2-0.6,0.4-1,0.5c-0.4,0.1-0.8,0.2-1.3,0.2s-1.1-0.1-1.6-0.2s-1-0.3-1.4-0.6
	l0.3-1.1c0.4,0.3,0.8,0.5,1.3,0.6c0.5,0.1,0.9,0.2,1.4,0.2c0.3,0,0.5,0,0.8-0.1c0.2-0.1,0.5-0.2,0.6-0.3c0.2-0.1,0.3-0.3,0.4-0.5
	c0.1-0.2,0.2-0.4,0.2-0.6c0-0.3-0.1-0.5-0.2-0.7c-0.1-0.2-0.3-0.3-0.5-0.5c-0.2-0.1-0.5-0.2-0.7-0.3c-0.3-0.1-0.5-0.2-0.8-0.3
	s-0.6-0.2-0.9-0.3c-0.3-0.1-0.6-0.3-0.8-0.5c-0.2-0.2-0.4-0.4-0.6-0.7c-0.2-0.3-0.2-0.6-0.2-1c0-0.4,0.1-0.8,0.2-1.1
	c0.2-0.3,0.4-0.6,0.6-0.8c0.2-0.2,0.6-0.4,1-0.5c0.4-0.1,0.8-0.2,1.2-0.2c0.5,0,1,0.1,1.4,0.2c0.5,0.1,0.9,0.3,1.3,0.5l-0.4,1.1
	c-0.4-0.2-0.8-0.4-1.2-0.5c-0.4-0.1-0.8-0.2-1.2-0.2c-0.5,0-1,0.1-1.3,0.4c-0.3,0.2-0.5,0.6-0.5,1c0,0.2,0.1,0.5,0.2,0.6
	c0.1,0.1,0.3,0.3,0.5,0.4c0.2,0.1,0.4,0.2,0.7,0.3s0.5,0.2,0.8,0.3c0.3,0.1,0.6,0.2,0.9,0.3s0.6,0.3,0.9,0.5
	c0.2,0.2,0.5,0.4,0.6,0.7C-206.8,785.3-206.8,785.7-206.8,786.1z M-203.8,779.6v5.8c0,0.8,0.2,1.4,0.5,1.7c0.3,0.4,0.8,0.5,1.5,0.5
	c0.5,0,1-0.1,1.5-0.4c0.5-0.2,0.9-0.5,1.3-0.9v-6.8h1.2v9l-1.2,0.3v-1.4c-0.5,0.5-1,0.8-1.5,1.1c-0.6,0.2-1.1,0.4-1.6,0.4
	c-0.9,0-1.6-0.3-2.1-0.8s-0.8-1.3-0.8-2.3v-6.1h1.2C-203.8,779.7-203.8,779.6-203.8,779.6z M-194.3,788.5h-1.2v-9l1.2-0.3v2
	c0.3-0.6,0.7-1.1,1.1-1.4c0.4-0.3,0.9-0.5,1.5-0.5c0.3,0,0.6,0,0.9,0.1s0.5,0.2,0.7,0.3l-0.3,1.1c-0.2-0.1-0.4-0.2-0.6-0.3
	s-0.5-0.1-0.7-0.1c-0.5,0-0.9,0.2-1.3,0.5c-0.4,0.4-0.8,1-1.2,1.8L-194.3,788.5L-194.3,788.5z M-184.4,787.4
	c-0.3,0.4-0.7,0.7-1.1,0.9c-0.5,0.3-0.9,0.4-1.5,0.4c-0.4,0-0.8-0.1-1.1-0.2c-0.4-0.1-0.6-0.3-0.9-0.5c-0.2-0.2-0.4-0.5-0.6-0.8
	c-0.1-0.3-0.2-0.6-0.2-1c0-0.4,0.1-0.8,0.3-1.1c0.2-0.4,0.5-0.7,0.9-1c0.4-0.3,1-0.5,1.7-0.7c0.7-0.2,1.6-0.3,2.6-0.4v-0.5
	c0-0.7-0.2-1.2-0.5-1.6s-0.9-0.5-1.6-0.5c-0.2,0-0.5,0-0.8,0.1c-0.3,0.1-0.5,0.1-0.8,0.2c-0.3,0.1-0.5,0.2-0.7,0.3s-0.4,0.3-0.6,0.4
	l-0.3-1.1c0.2-0.1,0.4-0.3,0.7-0.4s0.5-0.2,0.8-0.3s0.6-0.2,0.9-0.2s0.6-0.1,0.9-0.1c1,0,1.8,0.3,2.4,0.8s0.8,1.3,0.8,2.5v4.3
	c0,0.3,0.1,0.6,0.2,0.7c0.1,0.1,0.4,0.2,0.7,0.2l-0.1,1c-0.6,0-1-0.1-1.4-0.3C-184.1,788.3-184.2,787.9-184.4,787.4L-184.4,787.4z
	 M-184.4,783.9c-0.8,0.1-1.4,0.2-1.9,0.3s-1,0.3-1.3,0.5c-0.3,0.2-0.6,0.4-0.7,0.6c-0.1,0.2-0.2,0.5-0.2,0.8c0,0.5,0.2,0.9,0.5,1.1
	c0.3,0.3,0.8,0.4,1.3,0.4s0.9-0.1,1.3-0.4c0.4-0.2,0.7-0.5,1-0.8C-184.4,786.4-184.4,783.9-184.4,783.9z M-174.9,788.5v-5.8
	c0-0.8-0.2-1.4-0.5-1.7c-0.3-0.4-0.8-0.5-1.5-0.5c-0.5,0-1,0.1-1.4,0.4c-0.5,0.2-0.9,0.5-1.3,0.9v6.8h-1.2v-9l1.2-0.3v1.5
	c0.5-0.5,1-0.8,1.5-1.1c0.5-0.3,1.1-0.4,1.5-0.4c0.9,0,1.6,0.3,2.1,0.8s0.8,1.3,0.8,2.3v6.1H-174.9L-174.9,788.5z M-166.1,788.6
	c-0.5,0.1-1,0.2-1.5,0.2c-0.7,0-1.3-0.1-1.8-0.3c-0.5-0.2-1-0.6-1.4-1c-0.4-0.4-0.7-0.9-0.9-1.5c-0.2-0.6-0.3-1.2-0.3-1.9
	s0.1-1.3,0.3-1.9c0.2-0.6,0.5-1.1,0.9-1.5c0.4-0.4,0.8-0.7,1.4-1c0.5-0.2,1.1-0.4,1.8-0.4c0.5,0,1.1,0.1,1.5,0.2
	c0.5,0.1,0.9,0.3,1.3,0.6l-0.3,1.1c-0.3-0.2-0.7-0.4-1.1-0.5c-0.4-0.1-0.9-0.2-1.3-0.2c-0.5,0-0.9,0.1-1.3,0.3
	c-0.4,0.2-0.7,0.4-1,0.7s-0.5,0.7-0.6,1.1c-0.1,0.4-0.2,0.9-0.2,1.5c0,0.6,0.1,1,0.2,1.5c0.1,0.4,0.4,0.8,0.6,1.2
	c0.3,0.3,0.6,0.6,1,0.7c0.4,0.2,0.8,0.3,1.3,0.3s0.9-0.1,1.3-0.2c0.4-0.1,0.8-0.3,1.2-0.6l0.3,1.1
	C-165.2,788.2-165.6,788.4-166.1,788.6z M-162.4,784.2c0,0.5,0.1,1,0.2,1.4c0.1,0.4,0.4,0.8,0.6,1.1c0.3,0.3,0.6,0.5,1,0.7
	c0.4,0.2,0.8,0.3,1.3,0.3s1-0.1,1.4-0.2c0.5-0.1,0.8-0.3,1.2-0.6l0.2,1.1c-0.4,0.2-0.8,0.4-1.3,0.6c-0.5,0.1-1,0.2-1.6,0.2
	c-0.6,0-1.2-0.1-1.8-0.3c-0.5-0.2-1-0.5-1.4-1c-0.4-0.4-0.7-0.9-0.9-1.5c-0.2-0.6-0.3-1.2-0.3-1.9s0.1-1.4,0.3-1.9s0.5-1.1,0.9-1.5
	c0.4-0.4,0.8-0.8,1.3-1c0.5-0.2,1.1-0.4,1.7-0.4c1,0,1.8,0.3,2.4,0.9c0.6,0.6,0.9,1.4,0.9,2.4c0,0.2,0,0.5,0,0.7
	c0,0.3-0.1,0.5-0.1,0.7L-162.4,784.2L-162.4,784.2z M-157.3,783.1c0-0.1,0-0.1,0-0.2c0-0.1,0-0.1,0-0.2c0-0.7-0.2-1.2-0.5-1.7
	s-0.9-0.6-1.6-0.6c-0.4,0-0.8,0.1-1.1,0.2s-0.6,0.3-0.9,0.6c-0.3,0.3-0.4,0.5-0.6,0.9c-0.1,0.3-0.3,0.7-0.3,1H-157.3L-157.3,783.1z
	 M-143.1,778.1c-0.5-0.3-1-0.6-1.6-0.7c-0.6-0.2-1.2-0.3-1.8-0.3c-0.7,0-1.3,0.1-1.8,0.4s-1,0.6-1.5,1c-0.4,0.4-0.7,1-1,1.6
	c-0.2,0.6-0.4,1.4-0.4,2.2c0,0.8,0.1,1.5,0.3,2.2c0.2,0.6,0.5,1.2,0.9,1.7s0.9,0.8,1.5,1.1s1.2,0.4,1.9,0.4c0.7,0,1.3-0.1,1.9-0.3
	c0.6-0.2,1.1-0.5,1.5-0.8l0.2,1.2c-0.5,0.3-1,0.5-1.6,0.7c-0.6,0.2-1.3,0.3-2,0.3c-0.9,0-1.7-0.1-2.4-0.4s-1.3-0.7-1.9-1.3
	c-0.5-0.5-0.9-1.2-1.2-2c-0.3-0.8-0.4-1.7-0.4-2.6c0-1,0.1-1.9,0.4-2.6c0.3-0.8,0.7-1.5,1.2-2s1.2-1,1.9-1.3s1.5-0.5,2.4-0.5
	c0.7,0,1.4,0.1,2.1,0.3s1.2,0.4,1.7,0.7L-143.1,778.1z M-133,784c0,0.7-0.1,1.4-0.3,1.9s-0.5,1.1-0.9,1.5c-0.4,0.4-0.9,0.7-1.4,1
	c-0.5,0.2-1.1,0.3-1.7,0.3c-0.6,0-1.2-0.1-1.7-0.3c-0.5-0.2-1-0.5-1.4-0.9c-0.4-0.4-0.7-0.9-0.9-1.5s-0.3-1.2-0.3-1.9
	c0-0.7,0.1-1.4,0.3-1.9c0.2-0.6,0.5-1.1,0.9-1.5c0.4-0.4,0.9-0.7,1.4-1c0.5-0.2,1.1-0.3,1.8-0.3s1.2,0.1,1.7,0.3s1,0.5,1.4,0.9
	c0.4,0.4,0.7,0.9,0.9,1.5C-133.1,782.7-133,783.3-133,784z M-134.2,784.1c0-0.5-0.1-1-0.2-1.5c-0.1-0.5-0.4-0.8-0.6-1.1
	c-0.3-0.3-0.6-0.6-1-0.7c-0.4-0.2-0.8-0.3-1.3-0.3s-0.9,0.1-1.3,0.3c-0.4,0.2-0.7,0.4-1,0.7c-0.3,0.3-0.5,0.7-0.6,1.1
	c-0.1,0.4-0.2,0.9-0.2,1.4s0.1,1,0.2,1.5c0.1,0.5,0.4,0.8,0.6,1.1c0.3,0.3,0.6,0.6,1,0.7c0.4,0.2,0.8,0.3,1.3,0.3s0.9-0.1,1.3-0.3
	c0.4-0.2,0.7-0.4,1-0.8c0.3-0.3,0.5-0.7,0.6-1.1C-134.2,785.1-134.2,784.6-134.2,784.1z M-119.9,788.5v-5.8c0-0.8-0.2-1.4-0.5-1.7
	c-0.3-0.4-0.8-0.6-1.4-0.6c-0.5,0-0.9,0.1-1.4,0.3c-0.4,0.2-0.8,0.5-1.1,0.8c0,0.1,0,0.2,0,0.4s0,0.3,0,0.4v6.1h-1.2v-5.8
	c0-0.8-0.2-1.4-0.5-1.7c-0.3-0.4-0.8-0.6-1.4-0.6c-0.5,0-0.9,0.1-1.3,0.3c-0.4,0.2-0.8,0.4-1.1,0.7v7h-1.2v-9l1.2-0.3v1.2
	c0.5-0.4,0.9-0.7,1.4-0.9c0.5-0.2,1-0.3,1.4-0.3c0.6,0,1,0.1,1.5,0.4c0.4,0.2,0.7,0.6,1,1.1c0.5-0.5,1-0.9,1.6-1.1
	c0.5-0.2,1.1-0.4,1.6-0.4c0.9,0,1.5,0.3,2,0.8s0.7,1.3,0.7,2.3v6.1h-1.3C-119.9,788.2-119.9,788.5-119.9,788.5z M-114,779.7
	c0.4-0.2,0.9-0.3,1.5-0.3s1.2,0.1,1.6,0.3c0.5,0.2,0.9,0.5,1.3,1c0.4,0.4,0.6,0.9,0.8,1.5s0.3,1.2,0.3,1.9c0,0.7-0.1,1.3-0.3,1.9
	s-0.5,1.1-0.9,1.5s-0.9,0.8-1.4,1s-1.1,0.4-1.8,0.4c-0.4,0-0.7,0-1.1-0.1c-0.4-0.1-0.8-0.2-1.1-0.3v4.8h-1.2v-13.8l1.2-0.3v1.2
	C-114.8,780.2-114.4,779.9-114,779.7z M-115.1,787c0.3,0.2,0.6,0.4,1,0.5s0.8,0.2,1.2,0.2c0.5,0,0.9-0.1,1.3-0.3
	c0.4-0.2,0.7-0.4,1-0.8s0.5-0.7,0.6-1.2c0.1-0.4,0.2-0.9,0.2-1.5c0-0.5-0.1-1-0.2-1.4c-0.1-0.4-0.3-0.8-0.6-1.1
	c-0.3-0.3-0.6-0.6-0.9-0.7c-0.4-0.2-0.8-0.3-1.2-0.3c-0.5,0-0.9,0.1-1.3,0.3c-0.4,0.2-0.8,0.4-1.1,0.7V787z M-102,787.4
	c-0.3,0.4-0.7,0.7-1.1,0.9c-0.5,0.3-0.9,0.4-1.5,0.4c-0.4,0-0.8-0.1-1.1-0.2c-0.4-0.1-0.7-0.3-0.9-0.5c-0.2-0.2-0.4-0.5-0.6-0.8
	c-0.1-0.3-0.2-0.6-0.2-1c0-0.4,0.1-0.8,0.3-1.1c0.2-0.4,0.5-0.7,0.9-1s1-0.5,1.7-0.7c0.7-0.2,1.6-0.3,2.6-0.4v-0.5
	c0-0.7-0.2-1.2-0.5-1.6c-0.3-0.4-0.9-0.5-1.6-0.5c-0.2,0-0.5,0-0.8,0.1c-0.3,0.1-0.5,0.1-0.8,0.2c-0.3,0.1-0.5,0.2-0.7,0.3
	s-0.4,0.3-0.6,0.4l-0.3-1.1c0.2-0.1,0.4-0.3,0.7-0.4s0.5-0.2,0.8-0.3c0.3-0.1,0.6-0.2,0.9-0.2c0.3-0.1,0.6-0.1,0.9-0.1
	c1,0,1.8,0.3,2.4,0.8c0.6,0.5,0.8,1.3,0.8,2.5v4.3c0,0.3,0.1,0.6,0.2,0.7c0.1,0.1,0.4,0.2,0.7,0.2l-0.1,1c-0.6,0-1-0.1-1.4-0.3
	C-101.7,788.3-101.8,787.9-102,787.4L-102,787.4z M-102,783.9c-0.8,0.1-1.4,0.2-1.9,0.3s-1,0.3-1.3,0.5c-0.3,0.2-0.6,0.4-0.7,0.6
	s-0.2,0.5-0.2,0.8c0,0.5,0.2,0.9,0.5,1.1c0.3,0.3,0.8,0.4,1.3,0.4s0.9-0.1,1.3-0.4c0.4-0.2,0.7-0.5,1-0.8V783.9L-102,783.9z
	 M-92.6,788.5v-5.8c0-0.8-0.2-1.4-0.5-1.7c-0.3-0.4-0.8-0.5-1.5-0.5c-0.5,0-1,0.1-1.4,0.4c-0.5,0.2-0.9,0.5-1.3,0.9v6.8h-1.2v-9
	l1.2-0.3v1.5c0.5-0.5,1-0.8,1.5-1.1c0.5-0.3,1.1-0.4,1.5-0.4c0.9,0,1.6,0.3,2.1,0.8s0.8,1.3,0.8,2.3v6.1H-92.6L-92.6,788.5z
	 M-87.5,776.6c0,0.2-0.1,0.4-0.2,0.6c-0.1,0.2-0.3,0.3-0.6,0.3c-0.3,0-0.5-0.1-0.6-0.3c-0.1-0.2-0.2-0.4-0.2-0.6
	c0-0.2,0.1-0.4,0.2-0.6c0.1-0.2,0.3-0.3,0.6-0.3c0.3,0,0.5,0.1,0.6,0.3C-87.6,776.2-87.5,776.4-87.5,776.6z M-88.9,788.5v-9l1.2-0.3
	v9.2L-88.9,788.5L-88.9,788.5z M-84.6,784.2c0,0.5,0.1,1,0.2,1.4c0.1,0.4,0.4,0.8,0.6,1.1c0.3,0.3,0.6,0.5,1,0.7s0.8,0.3,1.3,0.3
	s1-0.1,1.4-0.2s0.8-0.3,1.2-0.6l0.2,1.1c-0.4,0.2-0.8,0.4-1.3,0.6c-0.5,0.2-1,0.2-1.6,0.2s-1.2-0.1-1.8-0.3c-0.5-0.2-1-0.5-1.4-1
	c-0.4-0.4-0.7-0.9-0.9-1.5c-0.2-0.6-0.3-1.2-0.3-1.9s0.1-1.4,0.3-1.9s0.5-1.1,0.9-1.5c0.4-0.4,0.8-0.8,1.3-1
	c0.5-0.2,1.1-0.4,1.7-0.4c1,0,1.8,0.3,2.4,0.9c0.6,0.6,0.9,1.4,0.9,2.4c0,0.2,0,0.5,0,0.7c0,0.3-0.1,0.5-0.1,0.7L-84.6,784.2
	L-84.6,784.2z M-79.6,783.1c0-0.1,0-0.1,0-0.2c0-0.1,0-0.1,0-0.2c0-0.7-0.2-1.2-0.5-1.7s-0.9-0.6-1.6-0.6c-0.4,0-0.8,0.1-1.1,0.2
	s-0.6,0.3-0.9,0.6c-0.3,0.3-0.4,0.5-0.6,0.9c-0.2,0.3-0.3,0.7-0.3,1H-79.6L-79.6,783.1z M-71.1,786.1c0,0.4-0.1,0.8-0.2,1.1
	c-0.2,0.3-0.4,0.6-0.7,0.8c-0.3,0.2-0.6,0.4-1,0.5s-0.8,0.2-1.3,0.2s-1.1-0.1-1.6-0.2s-1-0.3-1.3-0.6l0.3-1.1
	c0.4,0.3,0.8,0.5,1.3,0.6c0.5,0.1,0.9,0.2,1.4,0.2c0.3,0,0.5,0,0.8-0.1c0.2-0.1,0.5-0.2,0.6-0.3c0.2-0.1,0.3-0.3,0.4-0.5
	s0.2-0.4,0.2-0.6c0-0.3-0.1-0.5-0.2-0.7c-0.1-0.2-0.3-0.3-0.5-0.5c-0.2-0.1-0.4-0.2-0.7-0.3c-0.3-0.1-0.5-0.2-0.8-0.3
	s-0.6-0.2-0.9-0.3s-0.6-0.3-0.8-0.5c-0.2-0.2-0.5-0.4-0.6-0.7c-0.2-0.3-0.2-0.6-0.2-1c0-0.4,0.1-0.8,0.2-1.1
	c0.2-0.3,0.4-0.6,0.6-0.8c0.3-0.2,0.6-0.4,1-0.5s0.8-0.2,1.2-0.2c0.5,0,1,0.1,1.4,0.2c0.5,0.1,0.9,0.3,1.3,0.5l-0.4,1.1
	c-0.4-0.2-0.8-0.4-1.2-0.5c-0.4-0.1-0.8-0.2-1.2-0.2c-0.5,0-1,0.1-1.3,0.4c-0.3,0.2-0.5,0.6-0.5,1c0,0.2,0.1,0.5,0.2,0.6
	c0.1,0.2,0.3,0.3,0.5,0.4s0.4,0.2,0.7,0.3c0.3,0.1,0.5,0.2,0.8,0.3s0.6,0.2,0.9,0.3s0.6,0.3,0.9,0.5c0.2,0.2,0.5,0.4,0.6,0.7
	S-71.1,785.7-71.1,786.1z M-271.2,748.5c0,0,2.6-4,8-4h22.2l0.1,13.1h-14.8c0,0-5.3-0.4-7.4,4.1l-13.9,24.1c0,0-1.9,4.4-7.7,4.4
	H-298v-13.1h5.8c0,0,4.6,0.1,7.4-5.4L-271.2,748.5 M-253.6,762.2v6c0,1.2-1,2.2-2.2,2.2h-6.7l-6.4,11.6h13.1c1.2,0,2.2,1,2.2,2.2
	v5.8h12.6v-7v-13.6v-7.2H-253.6z"/>
</svg>
