<?xml version="1.0" encoding="utf-8"?>
<!-- Generator: Adobe Illustrator 19.1.0, SVG Export Plug-In . SVG Version: 6.00 Build 0)  -->
<svg version="1.1" id="Layer_1" xmlns="http://www.w3.org/2000/svg" xmlns:xlink="http://www.w3.org/1999/xlink" x="0px" y="0px"
	 viewBox="-298 391 15 12" enable-background="new -298 391 15 12" xml:space="preserve">
<path fill="#FFFFFF" d="M-298,402h3v1h-3V402z M-296,401h1v1h-1V401z M-298,401h1v1h-1V401z M-286,401h1v1h-1V401z M-286,398h1v1h-1
	V398z M-288,398h1v1h-1V398z M-294,398h7v1h-7V398z M-296,398h1v1h-1V398z M-284,401h1v1h-1V401z M-286,402h3v1h-3V402z M-287.2,392
	c0.6,0,1.2,0.6,1.2,1.2v1.8h-9v-1.8c0-0.6,0.6-1.2,1.2-1.2H-287.2 M-287.2,391h-6.6c-1.2,0-2.2,1-2.2,2.2v2.8h11v-2.8
	C-285,392-286,391-287.2,391z M-285.9,396c1,0,1.9,0.8,1.9,1.9v2.1h-13v-2.1c0-1.1,0.8-1.9,1.9-1.9H-285.9 M-285.9,395h-9.2
	c-1.7,0.5-2.9,1.3-2.9,2.9v3.1h15v-3.1C-283,396.3-284.3,395-285.9,395z"/>
</svg>
